<svg xmlns="http://www.w3.org/2000/svg" width="83" height="84" fill="none"><path d="m26.824 17.026-.742.651.97 1.018c3.062 3.211 5.788 5.228 9.541 7.056 3.336 1.625 6.163 2.46 9.808 2.898 2.028.243 5.536.083 7.613-.348.911-.189 1.67-.33 1.687-.313.017.017-8.494 7.344-18.913 16.282-10.418 8.938-18.94 16.313-18.937 16.389.004.076.274.437.6.801l.595.663 19.077-16.378c10.493-9.007 19.101-16.358 19.128-16.336.028.023-.137.496-.367 1.052-.516 1.249-.894 2.531-1.277 4.33-.425 1.995-.535 6.565-.21 8.784.73 5 2.241 8.996 5.021 13.28.937 1.445 2.406 3.321 2.593 3.314.076-.004.439-.276.806-.605l.667-.598-1.034-1.323c-5.508-7.047-7.609-16.248-5.487-24.028 1.064-3.899 2.782-6.853 5.569-9.575l1.377-1.345-.425-.536c-.775-.978-.741-.976-1.798-.122-3.297 2.665-6.847 4.139-11.222 4.66-4.244.506-9.388-.484-13.907-2.676-3.233-1.568-5.612-3.277-8.315-5.974l-1.676-1.672-.742.651" fill-rule="evenodd" fill="#000"/></svg>