<svg width="60" height="60" viewBox="0 0 60 60" fill="none" xmlns="http://www.w3.org/2000/svg">
<g id="megaphone 1">
<g id="Group">
<path id="Vector" d="M47.5367 18.9578C46.5671 18.8292 45.4956 19.0703 44.4939 19.2631C43.4599 16.7345 42.3296 14.2435 41.1081 11.822C40.3367 10.2953 39.4314 7.87383 37.9421 6.86133C35.8796 5.46312 33.5492 7.7774 32.2528 9.19705C26.7349 15.2399 21.7046 21.6203 14.3117 25.531C14.2421 25.5685 14.1885 25.6113 14.1349 25.6542C12.051 26.2917 9.97779 26.9453 7.90993 27.631C6.58136 28.0756 4.76527 28.3703 3.66705 29.3506C1.78134 31.0274 3.04027 34.681 3.78491 36.5988C4.48669 38.4042 6.12064 42.047 8.226 42.6631C8.79922 42.8345 9.48493 42.7435 10.1653 42.5721C11.4135 45.1649 12.5546 47.8328 13.9956 50.3238C14.9224 51.931 15.8653 54.0685 18.0349 53.3506C20.301 52.6006 23.151 50.2917 22.4599 47.6185C22.1117 46.2685 20.8796 45.2613 20.1135 44.1631C19.2617 42.9524 18.6028 41.6399 17.9814 40.3006C18.3189 40.1935 18.651 40.0917 18.9885 39.9792C23.2314 39.1542 27.4956 38.731 31.8028 39.2078C35.6385 39.631 39.3831 40.6435 43.1492 41.447C45.0028 41.8435 48.5385 43.306 49.8135 41.056C51.1153 38.7631 49.3956 34.472 48.8064 32.1899C48.4046 30.6417 47.9546 29.0988 47.4778 27.5613C48.5171 26.8595 49.8081 26.2006 50.3171 25.0274C50.8528 23.7953 50.3171 22.4292 49.7974 21.2935C49.3421 20.3185 48.7099 19.1131 47.5367 18.9578ZM7.00993 39.2238C6.3885 38.356 5.88493 37.4292 5.47243 36.4488C5.05455 35.4685 4.73312 34.4667 4.54562 33.4167C4.13848 31.1667 5.39743 30.1756 7.34207 29.522C9.6885 28.7292 12.051 27.9845 14.4189 27.256C15.6135 31.0435 16.8831 34.8042 18.2224 38.5435C16.1224 39.2185 14.0064 39.8453 11.8689 40.3863C9.87064 40.8953 8.36529 41.1096 7.00993 39.2238ZM19.626 45.5238C19.8403 45.8078 20.1831 46.1721 20.3546 46.4399C21.4046 48.0846 21.426 49.0971 20.0385 50.6238C19.6689 51.031 18.951 51.4863 18.4689 51.7167C17.9974 51.9417 17.6492 52.0595 17.3385 52.0703C17.5635 51.6899 17.7456 51.2828 17.8903 50.8596C18.1421 50.1256 16.9796 49.8095 16.7278 50.5381C16.6046 50.8917 16.4439 51.2238 16.251 51.5399C16.1974 51.4917 16.1492 51.4488 16.0956 51.3899C15.9831 51.2774 15.876 51.1488 15.7742 51.0149C15.7849 50.9881 15.801 50.9667 15.8064 50.9399C15.8921 50.6828 16.0581 50.4524 16.1814 50.2113C16.3314 49.9113 16.4546 49.606 16.5671 49.2899C16.8189 48.556 15.6564 48.2399 15.4046 48.9685C15.2974 49.2792 15.1474 49.5631 14.9974 49.8524C14.8367 49.5685 14.6867 49.2792 14.5421 48.9846C14.5421 48.9792 14.5474 48.9792 14.5474 48.9738C14.826 48.3685 15.0992 47.7685 15.3778 47.1631C15.5117 46.8685 15.4635 46.5149 15.1635 46.3381C14.9064 46.1881 14.4724 46.2578 14.3385 46.5524C14.1831 46.8899 14.0278 47.2274 13.8778 47.5649C13.7706 47.3292 13.6581 47.0988 13.5564 46.8845C13.5028 46.772 13.4492 46.6595 13.3956 46.547C13.4385 46.5042 13.4814 46.456 13.5189 46.3971C13.7867 45.9363 14.0546 45.4703 14.3224 45.0095C14.7135 44.3399 13.6689 43.7292 13.2831 44.3988C13.1171 44.6881 12.951 44.9774 12.7796 45.2613C12.6296 44.9399 12.4742 44.6238 12.3242 44.3024C12.3671 44.2649 12.4099 44.2274 12.4474 44.1792C12.6885 43.8631 12.9189 43.5417 13.1439 43.2149C13.326 42.947 13.1921 42.5453 12.9296 42.3899C12.6296 42.2131 12.2867 42.3363 12.1046 42.6042C11.9921 42.7703 11.8689 42.931 11.751 43.0917C11.6117 42.7971 11.4724 42.5024 11.3331 42.2078C11.676 42.0953 11.9974 41.9935 12.2921 41.9185C13.8135 41.5328 15.3242 41.1042 16.8242 40.6435C17.6171 42.3738 18.4796 44.0131 19.626 45.5238ZM41.901 39.5345C38.4349 38.7685 34.9796 37.9167 31.4385 37.5631C27.3885 37.1613 23.3814 37.5524 19.3956 38.281C18.0189 34.4506 16.7224 30.5935 15.501 26.7095C22.1439 23.0828 27.3028 17.4203 32.1724 11.7363C32.7349 11.0774 33.6296 9.81848 34.626 8.9774C37.5028 13.2738 39.3778 18.631 41.2581 23.3828C43.4171 28.831 45.2117 34.7506 46.2457 40.5524C44.7671 40.4399 42.9403 39.7649 41.901 39.5345ZM48.5653 39.0363C48.5117 39.872 48.0778 40.2899 47.451 40.4667C46.401 34.4506 44.5314 28.3274 42.2706 22.681C40.3635 17.9238 38.526 12.6203 35.6439 8.32383C36.1689 8.09883 36.7046 8.05598 37.2189 8.35062C37.8992 8.74169 38.4831 10.3006 38.8474 10.9542C40.5189 14.0024 41.9171 17.206 43.1974 20.431C44.7296 24.2828 46.0903 28.2149 47.151 32.222C47.6814 34.2363 48.7046 36.931 48.5653 39.0363ZM48.9403 24.9578C48.5224 25.5524 47.7671 25.9703 47.0974 26.3828C46.4439 24.3738 45.726 22.381 44.9492 20.4149C45.426 20.3345 45.9081 20.2595 46.3903 20.206C47.5689 20.0828 48.0189 20.4203 48.5706 21.5078C49.0903 22.5417 49.701 23.8756 48.9403 24.9578Z" fill="#FFA903"/>
<path id="Vector_2" d="M47.8581 15.3471C47.8689 14.2007 47.8527 13.0542 47.8635 11.9132C47.8688 11.1364 46.6635 11.1364 46.6581 11.9132C46.6474 13.0596 46.6635 14.206 46.6528 15.3471C46.6421 16.1239 47.8474 16.1239 47.8581 15.3471Z" fill="#FFA903"/>
<path id="Vector_3" d="M52.7653 17.6667C53.3921 16.9756 54.0188 16.2899 54.6509 15.5988C55.1705 15.0256 54.3241 14.1738 53.7991 14.747C53.1724 15.4381 52.5456 16.1238 51.9135 16.8149C51.3885 17.3881 52.2403 18.2399 52.7653 17.6667Z" fill="#FFA903"/>
<path id="Vector_4" d="M56.8955 21.6148C56.0009 21.5612 55.1063 21.5666 54.2116 21.5345C53.4349 21.513 53.4349 22.7184 54.2116 22.7398C55.1063 22.7666 56.0063 22.7612 56.8955 22.8202C57.667 22.8684 57.667 21.663 56.8955 21.6148Z" fill="#FFA903"/>
<path id="Vector_5" d="M52.3581 27.1005C51.726 26.6452 51.126 27.6898 51.7474 28.1398C52.5135 28.6916 53.2314 29.313 53.9277 29.9505C54.5009 30.4702 55.3527 29.6237 54.7795 29.0987C54.008 28.397 53.2099 27.7166 52.3581 27.1005Z" fill="#FFA903"/>
<path id="Vector_6" d="M9.19565 32.7791C9.9135 32.5006 9.59743 31.3328 8.87422 31.6166C8.06529 31.9327 7.25636 32.2434 6.44743 32.5595C5.72958 32.8381 6.04565 34.006 6.76886 33.7221C7.57779 33.4113 8.38672 33.0952 9.19565 32.7791Z" fill="#FFA903"/>
<path id="Vector_7" d="M9.52778 33.5935C8.69743 33.9899 7.84564 34.3113 6.96707 34.5738C6.22778 34.7935 6.54386 35.956 7.2885 35.7363C8.26886 35.447 9.21707 35.072 10.1385 34.6327C10.8349 34.3006 10.2242 33.2613 9.52778 33.5935Z" fill="#FFA903"/>
</g>
</g>
</svg>
