<svg xmlns="http://www.w3.org/2000/svg" width="26" height="26" fill="none"><path d="M8.753 4.988c-.393.336-.732.627-.753.647-.021.02.162.242.412.499 1.861 1.917 4.235 3.028 6.73 3.151l.215.01-4.849 4.16a11012.3 11012.3 0 0 1-4.926 4.225c-.072.061-.034.115.556.802.348.405.647.742.663.748.017.007 2.247-1.889 4.956-4.214a1236.81 1236.81 0 0 1 4.938-4.226c.008 0-.003.161-.023.358-.049.457-.008 1.661.075 2.22.205 1.385.807 2.939 1.605 4.138.349.525.782 1.084.839 1.084.044 0 1.453-1.205 1.472-1.259.008-.023-.085-.168-.207-.323-1.231-1.567-1.89-3.513-1.809-5.341.07-1.587.629-2.904 1.684-3.972.369-.373.418-.439.368-.498a294.176 294.176 0 0 0-1.174-1.379c-.038-.042-.102-.009-.286.143-1.425 1.181-3.242 1.588-5.221 1.172-1.447-.305-2.897-1.122-4.062-2.289a15.455 15.455 0 0 0-.477-.467c-.006 0-.332.275-.726.611" fill-rule="evenodd" fill="#000"/></svg>