<svg width="54" height="54" viewBox="0 0 54 54" fill="none" xmlns="http://www.w3.org/2000/svg">
<g id="idea 1">
<g id="Group">
<g id="Group_2">
<g id="Group_3">
<path id="Vector" d="M50.7487 0.0164613L45.6858 3.80622L40.5941 15.6776H36.4996L34.8919 12.1936H35.9423C37.8637 12.1936 39.4263 10.6477 39.4263 8.72631V5.22573H41.1682V0H35.9423V5.22573H37.6843V8.72631C37.6843 9.68619 36.9031 10.4516 35.9423 10.4516H34.088L31.8618 5.63525L34.5287 4.30609L25.7963 0.566086L23.7434 7.75071C23.6876 3.47608 20.1976 0.0157297 15.9098 0.0157297C11.5873 0.0157297 8.07116 3.53186 8.07116 7.85442C8.07116 10.4665 9.3941 12.9164 11.5551 14.3649V15.6774H9.44568L9.30978 16.3916C8.88654 18.5874 8.84722 20.844 9.19309 23.0946L3.25129 33.6857L9.81313 35.1846V46.1613H18.5228V54H39.4261V41.8631C45.5228 37.55 49.0049 30.6154 48.9998 23.2174L49.0016 20.0402C49.0016 18.8425 48.891 17.6119 48.668 16.3995L48.5391 15.6774H46.8293L50.7487 6.28748V0.0164613ZM37.6841 3.5004V1.75843H39.4261V3.5004H37.6841ZM34.581 15.6774H31.2774L29.694 12.1934H32.9733L34.581 15.6774ZM26.9268 2.94822L30.389 4.43156L29.572 4.83212L32.1692 10.4516H28.9022L26.7796 5.79291L26.0001 6.18652L26.9268 2.94822ZM29.3638 15.6776H25.4907V13.9522C25.4907 12.9916 26.2719 12.1938 27.2327 12.1938H27.7804L29.3638 15.6776ZM25.9435 8.167L27 10.4917C25.1883 10.6137 23.7487 12.11 23.7487 13.952V15.6774H20.2648V14.3649C22.0077 13.1968 23.1903 11.374 23.5892 9.3438L25.9435 8.167ZM9.81331 7.85533C9.81331 4.4943 12.549 1.75861 15.91 1.75861C19.2711 1.75861 22.0067 4.4943 22.0067 7.85533C22.0067 10.0189 20.838 12.0403 18.9576 13.1299L18.523 13.3807V15.6774H16.781V10.307C17.7923 9.94646 18.523 8.98823 18.523 7.85423C18.523 6.41369 17.3506 5.24128 15.91 5.24128C14.4695 5.24128 13.2971 6.41387 13.2971 7.85442C13.2971 8.98842 14.0278 9.94646 15.039 10.3071V15.6776H13.2971V13.3807L12.8625 13.129C10.9821 12.0394 9.81331 10.0187 9.81331 7.85533ZM15.91 8.72631C15.4292 8.72631 15.039 8.33509 15.039 7.85533C15.039 7.37448 15.4292 6.98434 15.91 6.98434C16.3909 6.98434 16.781 7.37448 16.781 7.85533C16.781 8.33618 16.3909 8.72631 15.91 8.72631ZM47.0731 17.4195C47.1995 18.2903 47.2631 19.1736 47.2631 20.0323L47.265 23.2157C47.2703 30.1931 43.8273 36.727 38.0675 40.6925L37.6843 40.9539V52.2582H20.265V44.4195H11.5551V33.7954L5.91034 32.5072L11.0089 23.4169L10.9594 23.106C10.6355 21.2003 10.6172 19.1613 10.8985 17.4195H11.5551H20.2648H47.0731ZM44.9419 15.6774H42.4884L46.8302 5.55496L48.7611 6.51648L44.9419 15.6774ZM49.0067 4.70317L48.0434 4.22159L49.0067 3.5004V4.70317Z" fill="#FFA903"/>
<path id="Vector_2" d="M17.652 22.6453C16.2114 22.6453 15.039 21.7743 15.039 20.0323H13.2971C13.2971 22.6453 15.2507 24.3873 17.652 24.3873C20.0533 24.3873 22.0069 22.6453 22.0069 20.0323H20.2649C20.2648 21.7743 19.0925 22.6453 17.652 22.6453Z" fill="#FFA903"/>
</g>
</g>
</g>
</g>
</svg>
